<svg width="256" height="256" viewBox="0 0 256 256" fill="none" xmlns="http://www.w3.org/2000/svg">
  <circle cx="128" cy="128" r="128" fill="#0F172A"/>
  
  <g transform="translate(52, 52) scale(0.6)">
    <path d="M223.68,66.84l-88-50.28a16,16,0,0,0-15.36,0l-88,50.28a16,16,0,0,0-8,13.86v100.56a16,16,0,0,0,8,13.86l88,50.28a16,16,0,0,0,15.36,0l88-50.28a16,16,0,0,0,8-13.86V80.7A16,16,0,0,0,223.68,66.84Z" fill="#3B82F6"/>
    <path d="M128,114.8L54.57,72.85,128,30.9l73.43,41.95Z" fill="#1E293B" opacity="0.5"/>
    <path d="M120,225.1V133.27L32,82.99V178.5Z" fill="#1E293B" opacity="0.5"/>
  </g>
</svg>